<svg width="133" height="126" viewBox="0 0 133 126" fill="none" xmlns="http://www.w3.org/2000/svg">
<path d="M96.6185 42.3938L101.373 43.9414L101.088 44.8161L98.941 46.7474L96.9327 46.0937L96.3337 43.2685L96.6185 42.3938Z" fill="url(#paint0_linear_115_18)"/>
<path d="M96.9987 46.405L97.3707 48.1598L98.7044 46.9602L96.9987 46.405Z" fill="url(#paint1_linear_115_18)"/>
<path fill-rule="evenodd" clip-rule="evenodd" d="M0 112.753L30.5315 122.511C32.1097 123.016 33.798 122.145 34.3024 120.567L60.1808 39.6023C60.6852 38.0241 59.8147 36.3358 58.2365 35.8314L11.5627 20.9132C9.98446 20.4088 8.29616 21.2793 7.79172 22.8575L0 47.2352V67.9752C0.159441 67.9857 0.320185 68.0156 0.479252 68.0664L4.28936 69.2842C5.3415 69.6205 5.9218 70.746 5.58552 71.7982L5.28106 72.7507C4.94478 73.8028 3.81924 74.3831 2.76711 74.0468L0 73.1624V78.4116L1.24485 78.8095C2.29698 79.1458 2.87729 80.2713 2.541 81.3234L2.23655 82.276C1.9297 83.236 0.965729 83.8032 0 83.6397V99.6086C0.283796 99.5709 0.580198 99.5938 0.870992 99.6868L3.72858 100.6C4.78071 100.936 5.36102 102.062 5.02473 103.114L4.72028 104.067C4.38399 105.119 3.25845 105.699 2.20632 105.363L0 104.658V112.753ZM12.0484 31.8703C10.9963 31.5341 9.87073 32.1144 9.53444 33.1665L7.39246 39.8681C7.05617 40.9202 7.63648 42.0457 8.68861 42.382L48.6035 55.1398C49.6556 55.4761 50.7812 54.8958 51.1174 53.8436L53.2594 47.1421C53.5957 46.0899 53.0154 44.9644 51.9633 44.6281L12.0484 31.8703ZM4.05432 50.312C4.39061 49.2599 5.51614 48.6796 6.56828 49.0158L12.2834 50.8426C13.3356 51.1788 13.9159 52.3044 13.5796 53.3565L13.2751 54.309C12.9389 55.3612 11.8133 55.9415 10.7612 55.6052L5.04602 53.7785C3.99389 53.4422 3.41358 52.3167 3.74987 51.2645L4.05432 50.312ZM17.9986 52.6693C16.9465 52.333 15.8209 52.9133 15.4847 53.9654L15.1802 54.9179C14.8439 55.9701 15.4242 57.0956 16.4764 57.4319L22.1915 59.2586C23.2437 59.5949 24.3692 59.0146 24.7055 57.9625L25.0099 57.0099C25.3462 55.9578 24.7659 54.8323 23.7138 54.496L17.9986 52.6693ZM26.915 57.6188C27.2513 56.5667 28.3768 55.9864 29.4289 56.3227L35.1441 58.1494C36.1962 58.4857 36.7766 59.6112 36.4403 60.6633L36.1358 61.6159C35.7995 62.668 34.674 63.2483 33.6219 62.912L27.9067 61.0853C26.8546 60.749 26.2743 59.6235 26.6105 58.5714L26.915 57.6188ZM40.8593 59.9761C39.8071 59.6398 38.6816 60.2201 38.3453 61.2722L38.0409 62.2248C37.7046 63.2769 38.2849 64.4024 39.337 64.7387L45.0522 66.5654C46.1043 66.9017 47.2299 66.3214 47.5662 65.2693L47.8706 64.3168C48.2069 63.2646 47.6266 62.1391 46.5744 61.8028L40.8593 59.9761ZM1.00981 59.8373C1.34609 58.7851 2.47163 58.2048 3.52376 58.5411L9.23893 60.3678C10.2911 60.7041 10.8714 61.8297 10.5351 62.8818L10.2306 63.8343C9.89435 64.8865 8.76881 65.4668 7.71668 65.1305L2.00151 63.3038C0.949375 62.9675 0.369068 61.8419 0.705355 60.7898L1.00981 59.8373ZM7.49057 72.4071C7.82686 71.3549 8.9524 70.7746 10.0045 71.1109L12.8621 72.0243C13.9142 72.3606 14.4946 73.4861 14.1583 74.5382L13.8538 75.4908C13.5175 76.5429 12.392 77.1232 11.3399 76.7869L8.48227 75.8736C7.43014 75.5373 6.84983 74.4117 7.18612 73.3596L7.49057 72.4071ZM18.5773 73.851C17.5251 73.5147 16.3996 74.095 16.0633 75.1471L15.7589 76.0997C15.4226 77.1518 16.0029 78.2773 17.055 78.6136L19.9126 79.527C20.9647 79.8633 22.0903 79.283 22.4266 78.2308L22.731 77.2783C23.0673 76.2262 22.487 75.1006 21.4349 74.7643L18.5773 73.851ZM24.6361 77.8872C24.9724 76.8351 26.0979 76.2548 27.15 76.591L30.0076 77.5044C31.0597 77.8407 31.6401 78.9662 31.3038 80.0183L30.9993 80.9709C30.663 82.023 29.5375 82.6033 28.4854 82.267L25.6278 81.3537C24.5756 81.0174 23.9953 79.8919 24.3316 78.8397L24.6361 77.8872ZM35.7228 79.3311C34.6707 78.9948 33.5451 79.5751 33.2088 80.6273L32.9044 81.5798C32.5681 82.6319 33.1484 83.7575 34.2005 84.0937L38.0106 85.3115C39.0628 85.6478 40.1883 85.0675 40.5246 84.0154L40.829 83.0629C41.1653 82.0107 40.585 80.8852 39.5329 80.5489L35.7228 79.3311ZM6.96002 80.6362C5.90788 80.2999 4.78235 80.8802 4.44606 81.9324L4.14161 82.8849C3.80532 83.937 4.38563 85.0625 5.43776 85.3988L8.29535 86.3122C9.34748 86.6485 10.473 86.0682 10.8093 85.016L11.1138 84.0635C11.45 83.0114 10.8697 81.8858 9.8176 81.5495L6.96002 80.6362ZM13.0188 84.6724C13.3551 83.6203 14.4806 83.04 15.5328 83.3763L18.3904 84.2896C19.4425 84.6259 20.0228 85.7514 19.6865 86.8036L19.3821 87.7561C19.0458 88.8082 17.9202 89.3885 16.8681 89.0523L14.0105 88.1389C12.9584 87.8026 12.3781 86.6771 12.7144 85.6249L13.0188 84.6724ZM24.1055 86.1163C23.0534 85.78 21.9278 86.3603 21.5916 87.4125L21.2871 88.365C20.9508 89.4171 21.5311 90.5427 22.5833 90.879L25.4408 91.7923C26.493 92.1286 27.6185 91.5483 27.9548 90.4962L28.2593 89.5436C28.5955 88.4915 28.0152 87.366 26.9631 87.0297L24.1055 86.1163ZM30.1643 90.1525C30.5006 89.1004 31.6261 88.5201 32.6783 88.8564L36.4884 90.0742C37.5405 90.4105 38.1208 91.536 37.7845 92.5881L37.4801 93.5407C37.1438 94.5928 36.0183 95.1731 34.9661 94.8368L31.156 93.619C30.1039 93.2827 29.5236 92.1572 29.8599 91.1051L30.1643 90.1525ZM1.40155 91.4576C1.73783 90.4055 2.86337 89.8252 3.9155 90.1615L6.77309 91.0748C7.82522 91.4111 8.40553 92.5367 8.06924 93.5888L7.76479 94.5413C7.4285 95.5934 6.30296 96.1738 5.25083 95.8375L2.39325 94.9241C1.34112 94.5878 0.760808 93.4623 1.0971 92.4102L1.40155 91.4576ZM12.4883 92.9015C11.4361 92.5652 10.3106 93.1456 9.9743 94.1977L9.66985 95.1502C9.33356 96.2024 9.91387 97.3279 10.966 97.6642L13.8236 98.5775C14.8757 98.9138 16.0013 98.3335 16.3375 97.2814L16.642 96.3288C16.9783 95.2767 16.398 94.1512 15.3458 93.8149L12.4883 92.9015ZM18.547 96.9378C18.8833 95.8856 20.0089 95.3053 21.061 95.6416L23.9186 96.555C24.9707 96.8912 25.551 98.0168 25.2147 99.0689L24.9103 100.021C24.574 101.074 23.4485 101.654 22.3963 101.318L19.5387 100.404C18.4866 100.068 17.9063 98.9424 18.2426 97.8903L18.547 96.9378ZM29.6338 98.3817C28.5816 98.0454 27.4561 98.6257 27.1198 99.6778L26.8153 100.63C26.4791 101.682 27.0594 102.808 28.1115 103.144L31.9216 104.362C32.9737 104.698 34.0993 104.118 34.4356 103.066L34.74 102.113C35.0763 101.061 34.496 99.9358 33.4439 99.5995L29.6338 98.3817ZM6.92978 103.723C7.26607 102.671 8.39161 102.091 9.44374 102.427L12.3013 103.34C13.3535 103.676 13.9338 104.802 13.5975 105.854L13.293 106.807C12.9567 107.859 11.8312 108.439 10.7791 108.103L7.92149 107.189C6.86935 106.853 6.28905 105.728 6.62533 104.675L6.92978 103.723ZM18.0165 105.167C16.9644 104.831 15.8388 105.411 15.5025 106.463L15.1981 107.416C14.8618 108.468 15.4421 109.593 16.4942 109.93L19.3518 110.843C20.404 111.179 21.5295 110.599 21.8658 109.547L22.1702 108.594C22.5065 107.542 21.9262 106.417 20.8741 106.08L18.0165 105.167ZM24.0753 109.203C24.4116 108.151 25.5371 107.571 26.5892 107.907L30.3994 109.125C31.4515 109.461 32.0318 110.587 31.6955 111.639L31.3911 112.591C31.0548 113.643 29.9292 114.224 28.8771 113.887L25.067 112.67C24.0149 112.333 23.4345 111.208 23.7708 110.156L24.0753 109.203ZM14.9541 62.1945C13.902 61.8583 12.7764 62.4386 12.4401 63.4907L12.1357 64.4432C11.7994 65.4954 12.3797 66.6209 13.4318 66.9572L19.147 68.7839C20.1991 69.1202 21.3247 68.5399 21.661 67.4877L21.9654 66.5352C22.3017 65.4831 21.7214 64.3575 20.6693 64.0212L14.9541 62.1945ZM23.8705 67.1441C24.2068 66.092 25.3323 65.5117 26.3844 65.848L32.0996 67.6747C33.1517 68.0109 33.732 69.1365 33.3958 70.1886L33.0913 71.1412C32.755 72.1933 31.6295 72.7736 30.5773 72.4373L24.8622 70.6106C23.81 70.2743 23.2297 69.1488 23.566 68.0966L23.8705 67.1441ZM37.8148 69.5014C36.7626 69.1651 35.6371 69.7454 35.3008 70.7975L34.9964 71.7501C34.6601 72.8022 35.2404 73.9277 36.2925 74.264L42.0077 76.0907C43.0598 76.427 44.1853 75.8467 44.5216 74.7946L44.8261 73.842C45.1624 72.7899 44.5821 71.6644 43.5299 71.3281L37.8148 69.5014ZM47.4039 39.5002C47.4886 39.2353 47.772 39.0891 48.037 39.1738L54.6234 41.279C54.8883 41.3637 55.0345 41.6471 54.9498 41.9121C54.8651 42.1771 54.5816 42.3232 54.3167 42.2385L47.7303 40.1333C47.4653 40.0487 47.3192 39.7652 47.4039 39.5002Z" fill="url(#paint2_linear_115_18)"/>
<path d="M133 72.767C127.805 71.7986 122.352 71.7228 116.84 72.6792C92.0083 76.9876 75.3708 100.61 79.6792 125.442L133 116.191V112.305L86.0546 120.45C82.5508 100.256 96.9347 80.8972 118.182 77.2108C123.259 76.3299 128.268 76.4236 133 77.3518V72.767Z" fill="url(#paint3_linear_115_18)"/>
<path d="M110.418 0H115.676L101.438 43.7422L96.6831 42.1946L110.418 0Z" fill="url(#paint4_linear_115_18)"/>
<path d="M96.5978 42.4566L101.352 44.0042L101.295 44.1792L96.5409 42.6316L96.5978 42.4566Z" fill="url(#paint5_linear_115_18)"/>
<defs>
<linearGradient id="paint0_linear_115_18" x1="106.108" y1="0" x2="106.108" y2="44.1792" gradientUnits="userSpaceOnUse">
<stop stop-color="#9B79F7"/>
<stop offset="1" stop-color="#76A6FA"/>
</linearGradient>
<linearGradient id="paint1_linear_115_18" x1="106.108" y1="0" x2="106.108" y2="44.1792" gradientUnits="userSpaceOnUse">
<stop stop-color="#9B79F7"/>
<stop offset="1" stop-color="#76A6FA"/>
</linearGradient>
<linearGradient id="paint2_linear_115_18" x1="106.108" y1="0" x2="106.108" y2="44.1792" gradientUnits="userSpaceOnUse">
<stop stop-color="#9B79F7"/>
<stop offset="1" stop-color="#76A6FA"/>
</linearGradient>
<linearGradient id="paint3_linear_115_18" x1="106.108" y1="0" x2="106.108" y2="44.1792" gradientUnits="userSpaceOnUse">
<stop stop-color="#9B79F7"/>
<stop offset="1" stop-color="#76A6FA"/>
</linearGradient>
<linearGradient id="paint4_linear_115_18" x1="106.108" y1="0" x2="106.108" y2="44.1792" gradientUnits="userSpaceOnUse">
<stop stop-color="#9B79F7"/>
<stop offset="1" stop-color="#76A6FA"/>
</linearGradient>
<linearGradient id="paint5_linear_115_18" x1="106.108" y1="0" x2="106.108" y2="44.1792" gradientUnits="userSpaceOnUse">
<stop stop-color="#9B79F7"/>
<stop offset="1" stop-color="#76A6FA"/>
</linearGradient>
</defs>
</svg>
