<svg width="133" height="116" viewBox="0 0 133 116" fill="none" xmlns="http://www.w3.org/2000/svg">
<path d="M6.51551 74.1022L11.449 73.2894L11.5985 74.197L10.5803 76.8996L8.49644 77.2429L6.66504 75.0098L6.51551 74.1022Z" fill="url(#paint0_linear_119_254)"/>
<path d="M8.69823 77.489L9.83571 78.8759L10.4681 77.1974L8.69823 77.489Z" fill="url(#paint1_linear_119_254)"/>
<path d="M14.5155 65.1022L19.449 64.2894L19.5985 65.197L18.5803 67.8996L16.4964 68.2429L14.665 66.0098L14.5155 65.1022Z" fill="url(#paint2_linear_119_254)"/>
<path d="M16.6982 68.489L17.8357 69.8759L18.4681 68.1974L16.6982 68.489Z" fill="url(#paint3_linear_119_254)"/>
<path d="M9.24795 2.37426L4.31446 3.18708L14.4813 64.8956L19.4148 64.0828L9.24795 2.37426Z" fill="url(#paint4_linear_119_254)"/>
<path d="M19.4596 64.3547L14.5261 65.1675L14.556 65.3491L19.4895 64.5362L19.4596 64.3547Z" fill="url(#paint5_linear_119_254)"/>
<path d="M44.4719 40.0723L45.0807 39.9999L47.4567 59.9849L46.8479 60.0572L44.4719 40.0723Z" fill="url(#paint6_linear_119_254)"/>
<path d="M45 35.5903L49.965 35L53.3459 63.4369L48.3808 64.0272L45 35.5903Z" fill="url(#paint7_linear_119_254)"/>
<path d="M48.4207 64.3621L53.3857 63.7719L57.6431 99.5818L52.678 100.172L48.4207 64.3621Z" fill="url(#paint8_linear_119_254)"/>
<path d="M52.7179 100.507L53.1786 104.382L58.1436 103.792L57.6829 99.9167L52.7179 100.507Z" fill="url(#paint9_linear_119_254)"/>
<path d="M21.6096 33.7535C21.0691 33.8671 20.5389 33.5211 20.4253 32.9806L17.5294 19.2026C17.4158 18.6622 17.7618 18.1319 18.3023 18.0183L26.2178 16.3546C26.7583 16.241 27.2885 16.5871 27.4021 17.1275L30.298 30.9055C30.4116 31.446 30.0656 31.9762 29.5251 32.0898L21.6096 33.7535Z" fill="url(#paint10_linear_119_254)"/>
<path d="M133 101.645V107.687L78.2743 114.193L77.5661 108.235L133 101.645Z" fill="url(#paint11_linear_119_254)"/>
<path d="M133 100.156V100.638L77.448 107.242L76.9759 103.27L132.584 96.6594L133 100.156Z" fill="url(#paint12_linear_119_254)"/>
<path d="M133 91.5748V91.6844L132.987 91.5764L133 91.5748Z" fill="url(#paint13_linear_119_254)"/>
<path d="M133 86.5396V90.5678L132.869 90.5834L132.397 86.6113L133 86.5396Z" fill="url(#paint14_linear_119_254)"/>
<path d="M133 81.5044V85.5326L132.279 85.6183L131.807 81.6463L133 81.5044Z" fill="url(#paint15_linear_119_254)"/>
<path d="M133 76.4692V80.4974L131.689 80.6533L131.217 76.6812L133 76.4692Z" fill="url(#paint16_linear_119_254)"/>
<path d="M133 71.434V75.4622L131.099 75.6882L130.626 71.7162L133 71.434Z" fill="url(#paint17_linear_119_254)"/>
<path d="M133 66.3988V70.427L130.508 70.7232L130.036 66.7511L133 66.3988Z" fill="url(#paint18_linear_119_254)"/>
<path d="M133 61.3636V65.3918L129.918 65.7581L129.446 61.7861L133 61.3636Z" fill="url(#paint19_linear_119_254)"/>
<path d="M133 56.3284V60.3566L129.328 60.7931L128.856 56.821L133 56.3284Z" fill="url(#paint20_linear_119_254)"/>
<path d="M133 51.2932V55.3214L128.738 55.828L128.266 51.856L133 51.2932Z" fill="url(#paint21_linear_119_254)"/>
<path d="M133 46.258V50.2862L128.148 50.863L127.675 46.891L133 46.258Z" fill="url(#paint22_linear_119_254)"/>
<path d="M133 41.2228V45.251L127.557 45.8979L127.085 41.9259L133 41.2228Z" fill="url(#paint23_linear_119_254)"/>
<path d="M133 36.1876V40.2158L126.967 40.9329L126.495 36.9609L133 36.1876Z" fill="url(#paint24_linear_119_254)"/>
<path d="M133 31.1524V35.1806L126.377 35.9679L125.905 31.9958L133 31.1524Z" fill="url(#paint25_linear_119_254)"/>
<path d="M133 26.1172V30.1454L125.787 31.0028L125.315 27.0308L133 26.1172Z" fill="url(#paint26_linear_119_254)"/>
<path d="M133 21.082V25.1102L125.197 26.0378L124.724 22.0657L133 21.082Z" fill="url(#paint27_linear_119_254)"/>
<path d="M133 16.0468V20.075L124.606 21.0727L124.134 17.1007L133 16.0468Z" fill="url(#paint28_linear_119_254)"/>
<path d="M55.1932 13.2113C54.9324 11.0176 56.4993 9.02784 58.693 8.76708L64.6511 8.05884L66.4217 22.954L56.4916 24.1344L55.1932 13.2113Z" fill="url(#paint29_linear_119_254)"/>
<path d="M67.4147 22.8359L65.6441 7.9408L121.253 1.33059L123.023 16.2257L67.4147 22.8359Z" fill="url(#paint30_linear_119_254)"/>
<path d="M124.016 16.1077L122.246 1.21255L127.211 0.62235C129.404 0.361583 131.394 1.92853 131.655 4.12223L132.953 15.0453L124.016 16.1077Z" fill="url(#paint31_linear_119_254)"/>
<path d="M76.5731 108.353L77.2813 114.311L71.3232 115.019C69.1296 115.28 67.1398 113.713 66.8791 111.519L66.643 109.533L76.5731 108.353Z" fill="url(#paint32_linear_119_254)"/>
<path d="M76.455 107.36L66.5249 108.54L66.0528 104.568L75.9829 103.388L76.455 107.36Z" fill="url(#paint33_linear_119_254)"/>
<path d="M75.8648 102.395L65.9347 103.575L65.4626 99.603L75.3927 98.4227L75.8648 102.395Z" fill="url(#paint34_linear_119_254)"/>
<path d="M75.2746 97.4296L65.3446 98.61L64.8724 94.638L74.8025 93.4576L75.2746 97.4296Z" fill="url(#paint35_linear_119_254)"/>
<path d="M74.6844 92.4646L64.7543 93.645L64.2822 89.673L74.2123 88.4926L74.6844 92.4646Z" fill="url(#paint36_linear_119_254)"/>
<path d="M74.0942 87.4995L64.1642 88.6799L63.692 84.7079L73.6221 83.5275L74.0942 87.4995Z" fill="url(#paint37_linear_119_254)"/>
<path d="M73.504 82.5345L63.574 83.7149L63.1018 79.7429L73.0319 78.5625L73.504 82.5345Z" fill="url(#paint38_linear_119_254)"/>
<path d="M72.9139 77.5695L62.9837 78.7499L62.5116 74.7778L72.4417 73.5974L72.9139 77.5695Z" fill="url(#paint39_linear_119_254)"/>
<path d="M72.3236 72.6044L62.3936 73.7848L61.9214 69.8128L71.8515 68.6324L72.3236 72.6044Z" fill="url(#paint40_linear_119_254)"/>
<path d="M71.7334 67.6394L61.8034 68.8198L61.3312 64.8477L71.2613 63.6673L71.7334 67.6394Z" fill="url(#paint41_linear_119_254)"/>
<path d="M71.1433 62.6743L61.2132 63.8547L60.741 59.8827L70.6711 58.7023L71.1433 62.6743Z" fill="url(#paint42_linear_119_254)"/>
<path d="M70.553 57.7093L60.623 58.8897L60.1508 54.9176L70.0809 53.7373L70.553 57.7093Z" fill="url(#paint43_linear_119_254)"/>
<path d="M69.9629 52.7442L60.0328 53.9246L59.5606 49.9526L69.4907 48.7722L69.9629 52.7442Z" fill="url(#paint44_linear_119_254)"/>
<path d="M69.3727 47.7792L59.4426 48.9596L58.9704 44.9876L68.9005 43.8072L69.3727 47.7792Z" fill="url(#paint45_linear_119_254)"/>
<path d="M68.7824 42.8141L58.8524 43.9945L58.3802 40.0225L68.3103 38.8421L68.7824 42.8141Z" fill="url(#paint46_linear_119_254)"/>
<path d="M68.1923 37.8491L58.2622 39.0295L57.79 35.0575L67.7201 33.8771L68.1923 37.8491Z" fill="url(#paint47_linear_119_254)"/>
<path d="M67.6021 32.8841L57.672 34.0645L57.1998 30.0924L67.1299 28.912L67.6021 32.8841Z" fill="url(#paint48_linear_119_254)"/>
<path d="M67.0119 27.919L57.0818 29.0994L56.6096 25.1274L66.5397 23.947L67.0119 27.919Z" fill="url(#paint49_linear_119_254)"/>
<path d="M67.5327 23.8289L123.141 17.2187L123.613 21.1908L68.0049 27.801L67.5327 23.8289Z" fill="url(#paint50_linear_119_254)"/>
<path d="M68.1229 28.794L123.731 22.1838L124.204 26.1558L68.5951 32.766L68.1229 28.794Z" fill="url(#paint51_linear_119_254)"/>
<path d="M68.7131 33.759L124.322 27.1488L124.794 31.1209L69.1853 37.7311L68.7131 33.759Z" fill="url(#paint52_linear_119_254)"/>
<path d="M69.3033 38.7241L124.912 32.1139L125.384 36.0859L69.7755 42.6961L69.3033 38.7241Z" fill="url(#paint53_linear_119_254)"/>
<path d="M69.8935 43.6891L125.502 37.0789L125.974 41.0509L70.3657 47.6612L69.8935 43.6891Z" fill="url(#paint54_linear_119_254)"/>
<path d="M70.4837 48.6542L126.092 42.044L126.564 46.016L70.9558 52.6262L70.4837 48.6542Z" fill="url(#paint55_linear_119_254)"/>
<path d="M71.0739 53.6192L126.682 47.009L127.155 50.981L71.5461 57.5912L71.0739 53.6192Z" fill="url(#paint56_linear_119_254)"/>
<path d="M71.6641 58.5843L127.273 51.974L127.745 55.9461L72.1363 62.5563L71.6641 58.5843Z" fill="url(#paint57_linear_119_254)"/>
<path d="M72.2543 63.5493L127.863 56.9391L128.335 60.9111L72.7264 67.5213L72.2543 63.5493Z" fill="url(#paint58_linear_119_254)"/>
<path d="M72.8445 68.5143L128.453 61.9041L128.925 65.8762L73.3167 72.4864L72.8445 68.5143Z" fill="url(#paint59_linear_119_254)"/>
<path d="M73.4347 73.4794L129.043 66.8692L129.515 70.8412L73.9068 77.4514L73.4347 73.4794Z" fill="url(#paint60_linear_119_254)"/>
<path d="M74.0249 78.4444L129.633 71.8342L130.106 75.8063L74.497 82.4165L74.0249 78.4444Z" fill="url(#paint61_linear_119_254)"/>
<path d="M74.6151 83.4095L130.224 76.7993L130.696 80.7713L75.0873 87.3815L74.6151 83.4095Z" fill="url(#paint62_linear_119_254)"/>
<path d="M75.2053 88.3745L130.814 81.7643L131.286 85.7363L75.6774 92.3466L75.2053 88.3745Z" fill="url(#paint63_linear_119_254)"/>
<path d="M75.7955 93.3396L131.404 86.7294L131.876 90.7014L76.2676 97.3116L75.7955 93.3396Z" fill="url(#paint64_linear_119_254)"/>
<path d="M76.3857 98.3046L131.994 91.6944L132.466 95.6664L76.8578 102.277L76.3857 98.3046Z" fill="url(#paint65_linear_119_254)"/>
<path d="M0 34.5568V11.5799L1.24796 11.3743L11.4148 73.0828L6.48129 73.8956L0 34.5568Z" fill="url(#paint66_linear_119_254)"/>
<path d="M6.52609 74.1676L11.4596 73.3547L11.4895 73.5362L6.556 74.3491L6.52609 74.1676Z" fill="url(#paint67_linear_119_254)"/>
<defs>
<linearGradient id="paint0_linear_119_254" x1="5.74474" y1="11.3743" x2="5.74474" y2="74.3491" gradientUnits="userSpaceOnUse">
<stop stop-color="#9B79F7"/>
<stop offset="1" stop-color="#76A6FA"/>
</linearGradient>
<linearGradient id="paint1_linear_119_254" x1="5.74474" y1="11.3743" x2="5.74474" y2="74.3491" gradientUnits="userSpaceOnUse">
<stop stop-color="#9B79F7"/>
<stop offset="1" stop-color="#76A6FA"/>
</linearGradient>
<linearGradient id="paint2_linear_119_254" x1="5.74474" y1="11.3743" x2="5.74474" y2="74.3491" gradientUnits="userSpaceOnUse">
<stop stop-color="#9B79F7"/>
<stop offset="1" stop-color="#76A6FA"/>
</linearGradient>
<linearGradient id="paint3_linear_119_254" x1="5.74474" y1="11.3743" x2="5.74474" y2="74.3491" gradientUnits="userSpaceOnUse">
<stop stop-color="#9B79F7"/>
<stop offset="1" stop-color="#76A6FA"/>
</linearGradient>
<linearGradient id="paint4_linear_119_254" x1="5.74474" y1="11.3743" x2="5.74474" y2="74.3491" gradientUnits="userSpaceOnUse">
<stop stop-color="#9B79F7"/>
<stop offset="1" stop-color="#76A6FA"/>
</linearGradient>
<linearGradient id="paint5_linear_119_254" x1="5.74474" y1="11.3743" x2="5.74474" y2="74.3491" gradientUnits="userSpaceOnUse">
<stop stop-color="#9B79F7"/>
<stop offset="1" stop-color="#76A6FA"/>
</linearGradient>
<linearGradient id="paint6_linear_119_254" x1="5.74474" y1="11.3743" x2="5.74474" y2="74.3491" gradientUnits="userSpaceOnUse">
<stop stop-color="#9B79F7"/>
<stop offset="1" stop-color="#76A6FA"/>
</linearGradient>
<linearGradient id="paint7_linear_119_254" x1="5.74474" y1="11.3743" x2="5.74474" y2="74.3491" gradientUnits="userSpaceOnUse">
<stop stop-color="#9B79F7"/>
<stop offset="1" stop-color="#76A6FA"/>
</linearGradient>
<linearGradient id="paint8_linear_119_254" x1="5.74474" y1="11.3743" x2="5.74474" y2="74.3491" gradientUnits="userSpaceOnUse">
<stop stop-color="#9B79F7"/>
<stop offset="1" stop-color="#76A6FA"/>
</linearGradient>
<linearGradient id="paint9_linear_119_254" x1="5.74474" y1="11.3743" x2="5.74474" y2="74.3491" gradientUnits="userSpaceOnUse">
<stop stop-color="#9B79F7"/>
<stop offset="1" stop-color="#76A6FA"/>
</linearGradient>
<linearGradient id="paint10_linear_119_254" x1="5.74474" y1="11.3743" x2="5.74474" y2="74.3491" gradientUnits="userSpaceOnUse">
<stop stop-color="#9B79F7"/>
<stop offset="1" stop-color="#76A6FA"/>
</linearGradient>
<linearGradient id="paint11_linear_119_254" x1="5.74474" y1="11.3743" x2="5.74474" y2="74.3491" gradientUnits="userSpaceOnUse">
<stop stop-color="#9B79F7"/>
<stop offset="1" stop-color="#76A6FA"/>
</linearGradient>
<linearGradient id="paint12_linear_119_254" x1="5.74474" y1="11.3743" x2="5.74474" y2="74.3491" gradientUnits="userSpaceOnUse">
<stop stop-color="#9B79F7"/>
<stop offset="1" stop-color="#76A6FA"/>
</linearGradient>
<linearGradient id="paint13_linear_119_254" x1="5.74474" y1="11.3743" x2="5.74474" y2="74.3491" gradientUnits="userSpaceOnUse">
<stop stop-color="#9B79F7"/>
<stop offset="1" stop-color="#76A6FA"/>
</linearGradient>
<linearGradient id="paint14_linear_119_254" x1="5.74474" y1="11.3743" x2="5.74474" y2="74.3491" gradientUnits="userSpaceOnUse">
<stop stop-color="#9B79F7"/>
<stop offset="1" stop-color="#76A6FA"/>
</linearGradient>
<linearGradient id="paint15_linear_119_254" x1="5.74474" y1="11.3743" x2="5.74474" y2="74.3491" gradientUnits="userSpaceOnUse">
<stop stop-color="#9B79F7"/>
<stop offset="1" stop-color="#76A6FA"/>
</linearGradient>
<linearGradient id="paint16_linear_119_254" x1="5.74474" y1="11.3743" x2="5.74474" y2="74.3491" gradientUnits="userSpaceOnUse">
<stop stop-color="#9B79F7"/>
<stop offset="1" stop-color="#76A6FA"/>
</linearGradient>
<linearGradient id="paint17_linear_119_254" x1="5.74474" y1="11.3743" x2="5.74474" y2="74.3491" gradientUnits="userSpaceOnUse">
<stop stop-color="#9B79F7"/>
<stop offset="1" stop-color="#76A6FA"/>
</linearGradient>
<linearGradient id="paint18_linear_119_254" x1="5.74474" y1="11.3743" x2="5.74474" y2="74.3491" gradientUnits="userSpaceOnUse">
<stop stop-color="#9B79F7"/>
<stop offset="1" stop-color="#76A6FA"/>
</linearGradient>
<linearGradient id="paint19_linear_119_254" x1="5.74474" y1="11.3743" x2="5.74474" y2="74.3491" gradientUnits="userSpaceOnUse">
<stop stop-color="#9B79F7"/>
<stop offset="1" stop-color="#76A6FA"/>
</linearGradient>
<linearGradient id="paint20_linear_119_254" x1="5.74474" y1="11.3743" x2="5.74474" y2="74.3491" gradientUnits="userSpaceOnUse">
<stop stop-color="#9B79F7"/>
<stop offset="1" stop-color="#76A6FA"/>
</linearGradient>
<linearGradient id="paint21_linear_119_254" x1="5.74474" y1="11.3743" x2="5.74474" y2="74.3491" gradientUnits="userSpaceOnUse">
<stop stop-color="#9B79F7"/>
<stop offset="1" stop-color="#76A6FA"/>
</linearGradient>
<linearGradient id="paint22_linear_119_254" x1="5.74474" y1="11.3743" x2="5.74474" y2="74.3491" gradientUnits="userSpaceOnUse">
<stop stop-color="#9B79F7"/>
<stop offset="1" stop-color="#76A6FA"/>
</linearGradient>
<linearGradient id="paint23_linear_119_254" x1="5.74474" y1="11.3743" x2="5.74474" y2="74.3491" gradientUnits="userSpaceOnUse">
<stop stop-color="#9B79F7"/>
<stop offset="1" stop-color="#76A6FA"/>
</linearGradient>
<linearGradient id="paint24_linear_119_254" x1="5.74474" y1="11.3743" x2="5.74474" y2="74.3491" gradientUnits="userSpaceOnUse">
<stop stop-color="#9B79F7"/>
<stop offset="1" stop-color="#76A6FA"/>
</linearGradient>
<linearGradient id="paint25_linear_119_254" x1="5.74474" y1="11.3743" x2="5.74474" y2="74.3491" gradientUnits="userSpaceOnUse">
<stop stop-color="#9B79F7"/>
<stop offset="1" stop-color="#76A6FA"/>
</linearGradient>
<linearGradient id="paint26_linear_119_254" x1="5.74474" y1="11.3743" x2="5.74474" y2="74.3491" gradientUnits="userSpaceOnUse">
<stop stop-color="#9B79F7"/>
<stop offset="1" stop-color="#76A6FA"/>
</linearGradient>
<linearGradient id="paint27_linear_119_254" x1="5.74474" y1="11.3743" x2="5.74474" y2="74.3491" gradientUnits="userSpaceOnUse">
<stop stop-color="#9B79F7"/>
<stop offset="1" stop-color="#76A6FA"/>
</linearGradient>
<linearGradient id="paint28_linear_119_254" x1="5.74474" y1="11.3743" x2="5.74474" y2="74.3491" gradientUnits="userSpaceOnUse">
<stop stop-color="#9B79F7"/>
<stop offset="1" stop-color="#76A6FA"/>
</linearGradient>
<linearGradient id="paint29_linear_119_254" x1="5.74474" y1="11.3743" x2="5.74474" y2="74.3491" gradientUnits="userSpaceOnUse">
<stop stop-color="#9B79F7"/>
<stop offset="1" stop-color="#76A6FA"/>
</linearGradient>
<linearGradient id="paint30_linear_119_254" x1="5.74474" y1="11.3743" x2="5.74474" y2="74.3491" gradientUnits="userSpaceOnUse">
<stop stop-color="#9B79F7"/>
<stop offset="1" stop-color="#76A6FA"/>
</linearGradient>
<linearGradient id="paint31_linear_119_254" x1="5.74474" y1="11.3743" x2="5.74474" y2="74.3491" gradientUnits="userSpaceOnUse">
<stop stop-color="#9B79F7"/>
<stop offset="1" stop-color="#76A6FA"/>
</linearGradient>
<linearGradient id="paint32_linear_119_254" x1="5.74474" y1="11.3743" x2="5.74474" y2="74.3491" gradientUnits="userSpaceOnUse">
<stop stop-color="#9B79F7"/>
<stop offset="1" stop-color="#76A6FA"/>
</linearGradient>
<linearGradient id="paint33_linear_119_254" x1="5.74474" y1="11.3743" x2="5.74474" y2="74.3491" gradientUnits="userSpaceOnUse">
<stop stop-color="#9B79F7"/>
<stop offset="1" stop-color="#76A6FA"/>
</linearGradient>
<linearGradient id="paint34_linear_119_254" x1="5.74474" y1="11.3743" x2="5.74474" y2="74.3491" gradientUnits="userSpaceOnUse">
<stop stop-color="#9B79F7"/>
<stop offset="1" stop-color="#76A6FA"/>
</linearGradient>
<linearGradient id="paint35_linear_119_254" x1="5.74474" y1="11.3743" x2="5.74474" y2="74.3491" gradientUnits="userSpaceOnUse">
<stop stop-color="#9B79F7"/>
<stop offset="1" stop-color="#76A6FA"/>
</linearGradient>
<linearGradient id="paint36_linear_119_254" x1="5.74474" y1="11.3743" x2="5.74474" y2="74.3491" gradientUnits="userSpaceOnUse">
<stop stop-color="#9B79F7"/>
<stop offset="1" stop-color="#76A6FA"/>
</linearGradient>
<linearGradient id="paint37_linear_119_254" x1="5.74474" y1="11.3743" x2="5.74474" y2="74.3491" gradientUnits="userSpaceOnUse">
<stop stop-color="#9B79F7"/>
<stop offset="1" stop-color="#76A6FA"/>
</linearGradient>
<linearGradient id="paint38_linear_119_254" x1="5.74474" y1="11.3743" x2="5.74474" y2="74.3491" gradientUnits="userSpaceOnUse">
<stop stop-color="#9B79F7"/>
<stop offset="1" stop-color="#76A6FA"/>
</linearGradient>
<linearGradient id="paint39_linear_119_254" x1="5.74474" y1="11.3743" x2="5.74474" y2="74.3491" gradientUnits="userSpaceOnUse">
<stop stop-color="#9B79F7"/>
<stop offset="1" stop-color="#76A6FA"/>
</linearGradient>
<linearGradient id="paint40_linear_119_254" x1="5.74474" y1="11.3743" x2="5.74474" y2="74.3491" gradientUnits="userSpaceOnUse">
<stop stop-color="#9B79F7"/>
<stop offset="1" stop-color="#76A6FA"/>
</linearGradient>
<linearGradient id="paint41_linear_119_254" x1="5.74474" y1="11.3743" x2="5.74474" y2="74.3491" gradientUnits="userSpaceOnUse">
<stop stop-color="#9B79F7"/>
<stop offset="1" stop-color="#76A6FA"/>
</linearGradient>
<linearGradient id="paint42_linear_119_254" x1="5.74474" y1="11.3743" x2="5.74474" y2="74.3491" gradientUnits="userSpaceOnUse">
<stop stop-color="#9B79F7"/>
<stop offset="1" stop-color="#76A6FA"/>
</linearGradient>
<linearGradient id="paint43_linear_119_254" x1="5.74474" y1="11.3743" x2="5.74474" y2="74.3491" gradientUnits="userSpaceOnUse">
<stop stop-color="#9B79F7"/>
<stop offset="1" stop-color="#76A6FA"/>
</linearGradient>
<linearGradient id="paint44_linear_119_254" x1="5.74474" y1="11.3743" x2="5.74474" y2="74.3491" gradientUnits="userSpaceOnUse">
<stop stop-color="#9B79F7"/>
<stop offset="1" stop-color="#76A6FA"/>
</linearGradient>
<linearGradient id="paint45_linear_119_254" x1="5.74474" y1="11.3743" x2="5.74474" y2="74.3491" gradientUnits="userSpaceOnUse">
<stop stop-color="#9B79F7"/>
<stop offset="1" stop-color="#76A6FA"/>
</linearGradient>
<linearGradient id="paint46_linear_119_254" x1="5.74474" y1="11.3743" x2="5.74474" y2="74.3491" gradientUnits="userSpaceOnUse">
<stop stop-color="#9B79F7"/>
<stop offset="1" stop-color="#76A6FA"/>
</linearGradient>
<linearGradient id="paint47_linear_119_254" x1="5.74474" y1="11.3743" x2="5.74474" y2="74.3491" gradientUnits="userSpaceOnUse">
<stop stop-color="#9B79F7"/>
<stop offset="1" stop-color="#76A6FA"/>
</linearGradient>
<linearGradient id="paint48_linear_119_254" x1="5.74474" y1="11.3743" x2="5.74474" y2="74.3491" gradientUnits="userSpaceOnUse">
<stop stop-color="#9B79F7"/>
<stop offset="1" stop-color="#76A6FA"/>
</linearGradient>
<linearGradient id="paint49_linear_119_254" x1="5.74474" y1="11.3743" x2="5.74474" y2="74.3491" gradientUnits="userSpaceOnUse">
<stop stop-color="#9B79F7"/>
<stop offset="1" stop-color="#76A6FA"/>
</linearGradient>
<linearGradient id="paint50_linear_119_254" x1="5.74474" y1="11.3743" x2="5.74474" y2="74.3491" gradientUnits="userSpaceOnUse">
<stop stop-color="#9B79F7"/>
<stop offset="1" stop-color="#76A6FA"/>
</linearGradient>
<linearGradient id="paint51_linear_119_254" x1="5.74474" y1="11.3743" x2="5.74474" y2="74.3491" gradientUnits="userSpaceOnUse">
<stop stop-color="#9B79F7"/>
<stop offset="1" stop-color="#76A6FA"/>
</linearGradient>
<linearGradient id="paint52_linear_119_254" x1="5.74474" y1="11.3743" x2="5.74474" y2="74.3491" gradientUnits="userSpaceOnUse">
<stop stop-color="#9B79F7"/>
<stop offset="1" stop-color="#76A6FA"/>
</linearGradient>
<linearGradient id="paint53_linear_119_254" x1="5.74474" y1="11.3743" x2="5.74474" y2="74.3491" gradientUnits="userSpaceOnUse">
<stop stop-color="#9B79F7"/>
<stop offset="1" stop-color="#76A6FA"/>
</linearGradient>
<linearGradient id="paint54_linear_119_254" x1="5.74474" y1="11.3743" x2="5.74474" y2="74.3491" gradientUnits="userSpaceOnUse">
<stop stop-color="#9B79F7"/>
<stop offset="1" stop-color="#76A6FA"/>
</linearGradient>
<linearGradient id="paint55_linear_119_254" x1="5.74474" y1="11.3743" x2="5.74474" y2="74.3491" gradientUnits="userSpaceOnUse">
<stop stop-color="#9B79F7"/>
<stop offset="1" stop-color="#76A6FA"/>
</linearGradient>
<linearGradient id="paint56_linear_119_254" x1="5.74474" y1="11.3743" x2="5.74474" y2="74.3491" gradientUnits="userSpaceOnUse">
<stop stop-color="#9B79F7"/>
<stop offset="1" stop-color="#76A6FA"/>
</linearGradient>
<linearGradient id="paint57_linear_119_254" x1="5.74474" y1="11.3743" x2="5.74474" y2="74.3491" gradientUnits="userSpaceOnUse">
<stop stop-color="#9B79F7"/>
<stop offset="1" stop-color="#76A6FA"/>
</linearGradient>
<linearGradient id="paint58_linear_119_254" x1="5.74474" y1="11.3743" x2="5.74474" y2="74.3491" gradientUnits="userSpaceOnUse">
<stop stop-color="#9B79F7"/>
<stop offset="1" stop-color="#76A6FA"/>
</linearGradient>
<linearGradient id="paint59_linear_119_254" x1="5.74474" y1="11.3743" x2="5.74474" y2="74.3491" gradientUnits="userSpaceOnUse">
<stop stop-color="#9B79F7"/>
<stop offset="1" stop-color="#76A6FA"/>
</linearGradient>
<linearGradient id="paint60_linear_119_254" x1="5.74474" y1="11.3743" x2="5.74474" y2="74.3491" gradientUnits="userSpaceOnUse">
<stop stop-color="#9B79F7"/>
<stop offset="1" stop-color="#76A6FA"/>
</linearGradient>
<linearGradient id="paint61_linear_119_254" x1="5.74474" y1="11.3743" x2="5.74474" y2="74.3491" gradientUnits="userSpaceOnUse">
<stop stop-color="#9B79F7"/>
<stop offset="1" stop-color="#76A6FA"/>
</linearGradient>
<linearGradient id="paint62_linear_119_254" x1="5.74474" y1="11.3743" x2="5.74474" y2="74.3491" gradientUnits="userSpaceOnUse">
<stop stop-color="#9B79F7"/>
<stop offset="1" stop-color="#76A6FA"/>
</linearGradient>
<linearGradient id="paint63_linear_119_254" x1="5.74474" y1="11.3743" x2="5.74474" y2="74.3491" gradientUnits="userSpaceOnUse">
<stop stop-color="#9B79F7"/>
<stop offset="1" stop-color="#76A6FA"/>
</linearGradient>
<linearGradient id="paint64_linear_119_254" x1="5.74474" y1="11.3743" x2="5.74474" y2="74.3491" gradientUnits="userSpaceOnUse">
<stop stop-color="#9B79F7"/>
<stop offset="1" stop-color="#76A6FA"/>
</linearGradient>
<linearGradient id="paint65_linear_119_254" x1="5.74474" y1="11.3743" x2="5.74474" y2="74.3491" gradientUnits="userSpaceOnUse">
<stop stop-color="#9B79F7"/>
<stop offset="1" stop-color="#76A6FA"/>
</linearGradient>
<linearGradient id="paint66_linear_119_254" x1="5.74474" y1="11.3743" x2="5.74474" y2="74.3491" gradientUnits="userSpaceOnUse">
<stop stop-color="#9B79F7"/>
<stop offset="1" stop-color="#76A6FA"/>
</linearGradient>
<linearGradient id="paint67_linear_119_254" x1="5.74474" y1="11.3743" x2="5.74474" y2="74.3491" gradientUnits="userSpaceOnUse">
<stop stop-color="#9B79F7"/>
<stop offset="1" stop-color="#76A6FA"/>
</linearGradient>
</defs>
</svg>
