<svg width="100%" height="100%" viewBox="0 0 90 90" fill="none" xmlns="http://www.w3.org/2000/svg">
            <g class="tile-icon-fill">
<path fill-rule="evenodd" clip-rule="evenodd" d="M45 90C69.8528 90 90 69.8528 90 45C90 20.1472 69.8528 0 45 0C20.1472 0 0 20.1472 0 45C0 69.8528 20.1472 90 45 90ZM45 88C68.7482 88 88 68.7482 88 45C88 21.2518 68.7482 2 45 2C21.2518 2 2 21.2518 2 45C2 68.7482 21.2518 88 45 88Z"/>
<path fill-rule="evenodd" clip-rule="evenodd" d="M45 87C68.196 87 87 68.196 87 45C87 21.804 68.196 3 45 3C21.804 3 3 21.804 3 45C3 68.196 21.804 87 45 87ZM23 19C20.7909 19 19 20.7909 19 23V68C19 70.2091 20.7909 72 23 72H68C70.2091 72 72 70.2091 72 68V23C72 20.7909 70.2091 19 68 19H23Z"/>
<path fill-rule="evenodd" clip-rule="evenodd" d="M23 27C23 24.7909 24.7909 23 27 23H39C41.2091 23 43 24.7909 43 27V39C43 41.2091 41.2091 43 39 43H27C24.7909 43 23 41.2091 23 39V27ZM31 27C31 25.8954 31.8954 25 33 25C34.1046 25 35 25.8954 35 27V31.001L39.0011 31.0032C40.1056 31.0038 41.0006 31.8997 41 33.0043C40.9994 34.1089 40.1035 35.0038 38.9989 35.0032L35 35.001V39C35 40.1046 34.1046 41 33 41C31.8954 41 31 40.1046 31 39V34.9989L26.9989 34.9967C25.8943 34.9961 24.9994 34.1002 25 32.9956C25.0006 31.891 25.8965 30.9961 27.0011 30.9967L31 30.9989V27Z"/>
<path fill-rule="evenodd" clip-rule="evenodd" d="M23 52C23 49.7909 24.7909 48 27 48H39C41.2091 48 43 49.7909 43 52V64C43 66.2091 41.2091 68 39 68H27C24.7909 68 23 66.2091 23 64V52ZM27.3256 55.2092C26.5393 54.4334 26.5309 53.1671 27.3067 52.3808C28.0826 51.5946 29.3489 51.5862 30.1351 52.362L32.9831 55.1723L35.7949 52.326C36.5711 51.5402 37.8374 51.5324 38.6232 52.3087C39.409 53.085 39.4168 54.3513 38.6405 55.1371L35.8303 57.9819L38.6767 60.7906C39.4629 61.5664 39.4714 62.8327 38.6955 63.619C37.9197 64.4052 36.6534 64.4136 35.8672 63.6378L33.0192 60.8275L30.2073 63.6741C29.431 64.4599 28.1647 64.4676 27.3789 63.6914C26.5931 62.9151 26.5854 61.6488 27.3616 60.863L30.172 58.018L27.3256 55.2092Z"/>
<path fill-rule="evenodd" clip-rule="evenodd" d="M52 23C49.7909 23 48 24.7909 48 27V39C48 41.2091 49.7909 43 52 43H64C66.2091 43 68 41.2091 68 39V27C68 24.7909 66.2091 23 64 23H52ZM50.0011 33C50.0005 34.1046 50.8954 35.0005 52 35.0011L64 35.0076C65.1046 35.0082 66.0005 34.1133 66.0011 33.0087C66.0017 31.9041 65.1067 31.0082 64.0022 31.0076L52.0022 31.0011C50.8976 31.0005 50.0017 31.8954 50.0011 33Z"/>
<path fill-rule="evenodd" clip-rule="evenodd" d="M52 48C49.7909 48 48 49.7909 48 52V64C48 66.2091 49.7909 68 52 68H64C66.2091 68 68 66.2091 68 64V52C68 49.7909 66.2091 48 64 48H52ZM50.0011 58C50.0005 59.1046 50.8954 60.0005 52 60.0011L64 60.0076C65.1046 60.0082 66.0005 59.1133 66.0011 58.0087C66.0017 56.9041 65.1067 56.0082 64.0022 56.0076L52.0022 56.0011C50.8976 56.0005 50.0017 56.8954 50.0011 58ZM60 52C60 53.1046 59.1046 54 58 54C56.8954 54 56 53.1046 56 52C56 50.8954 56.8954 50 58 50C59.1046 50 60 50.8954 60 52ZM58 66C59.1046 66 60 65.1046 60 64C60 62.8954 59.1046 62 58 62C56.8954 62 56 62.8954 56 64C56 65.1046 56.8954 66 58 66Z"/>
</g>
</svg>
