<svg width="100%" height="100%" viewBox="0 0 90 90" fill="none" xmlns="http://www.w3.org/2000/svg">
<g class="tile-icon-fill">
<path fill-rule="evenodd" clip-rule="evenodd" d="M45 90C69.8528 90 90 69.8528 90 45C90 20.1472 69.8528 0 45 0C20.1472 0 0 20.1472 0 45C0 69.8528 20.1472 90 45 90ZM45 88C68.7482 88 88 68.7482 88 45C88 21.2518 68.7482 2 45 2C21.2518 2 2 21.2518 2 45C2 68.7482 21.2518 88 45 88Z"/>
<path fill-rule="evenodd" clip-rule="evenodd" d="M45 87C68.196 87 87 68.196 87 45C87 21.804 68.196 3 45 3C21.804 3 3 21.804 3 45C3 68.196 21.804 87 45 87ZM23 21C20.7909 21 19 22.7909 19 25V66C19 68.2091 20.7909 70 23 70H67C69.2091 70 71 68.2091 71 66V25C71 22.7909 69.2091 21 67 21H23Z"/>
<path d="M28 23.5C28 22.6716 28.6716 22 29.5 22C30.3284 22 31 22.6716 31 23.5V29.5C31 30.3284 30.3284 31 29.5 31C28.6716 31 28 30.3284 28 29.5V23.5Z"/>
<path d="M59 23.5C59 22.6716 59.6716 22 60.5 22C61.3284 22 62 22.6716 62 23.5V29.5C62 30.3284 61.3284 31 60.5 31C59.6716 31 59 30.3284 59 29.5V23.5Z"/>
<path d="M58 28H32V30C32 31.1046 31.1046 32 30 32H29C27.8954 32 27 31.1046 27 30V28H23C21.8954 28 21 28.8954 21 30V35C21 36.1046 21.8954 37 23 37H67C68.1046 37 69 36.1046 69 35V30C69 28.8954 68.1046 28 67 28H63V30C63 31.1046 62.1046 32 61 32H60C58.8954 32 58 31.1046 58 30V28Z"/>
<path d="M51 41C51 39.8954 51.8954 39 53 39H57C58.1046 39 59 39.8954 59 41V45C59 46.1046 58.1046 47 57 47H53C51.8954 47 51 46.1046 51 45V41Z"/>
<path d="M61 41C61 39.8954 61.8954 39 63 39H67C68.1046 39 69 39.8954 69 41V45C69 46.1046 68.1046 47 67 47H63C61.8954 47 61 46.1046 61 45V41Z"/>
<path d="M61 52C61 50.8954 61.8954 50 63 50H67C68.1046 50 69 50.8954 69 52V56C69 57.1046 68.1046 58 67 58H63C61.8954 58 61 57.1046 61 56V52Z"/>
<path d="M51 52C51 50.8954 51.8954 50 53 50H57C58.1046 50 59 50.8954 59 52V56C59 57.1046 58.1046 58 57 58H53C51.8954 58 51 57.1046 51 56V52Z"/>
<path d="M41 52C41 50.8954 41.8954 50 43 50H47C48.1046 50 49 50.8954 49 52V56C49 57.1046 48.1046 58 47 58H43C41.8954 58 41 57.1046 41 56V52Z"/>
<path d="M31 52C31 50.8954 31.8954 50 33 50H37C38.1046 50 39 50.8954 39 52V56C39 57.1046 38.1046 58 37 58H33C31.8954 58 31 57.1046 31 56V52Z"/>
<path d="M21 52C21 50.8954 21.8954 50 23 50H27C28.1046 50 29 50.8954 29 52V56C29 57.1046 28.1046 58 27 58H23C21.8954 58 21 57.1046 21 56V52Z"/>
<path d="M41 62C41 60.8954 41.8954 60 43 60H47C48.1046 60 49 60.8954 49 62V66C49 67.1046 48.1046 68 47 68H43C41.8954 68 41 67.1046 41 66V62Z"/>
<path d="M31 62C31 60.8954 31.8954 60 33 60H37C38.1046 60 39 60.8954 39 62V66C39 67.1046 38.1046 68 37 68H33C31.8954 68 31 67.1046 31 66V62Z"/>
<path d="M21 62C21 60.8954 21.8954 60 23 60H27C28.1046 60 29 60.8954 29 62V66C29 67.1046 28.1046 68 27 68H23C21.8954 68 21 67.1046 21 66V62Z"/>
<path d="M51 62C51 60.8954 51.8954 60 53 60H57C58.1046 60 59 60.8954 59 62V66C59 67.1046 58.1046 68 57 68H53C51.8954 68 51 67.1046 51 66V62Z"/>
</g>
</svg>
