<svg width="100%" height="100%" viewBox="0 0 90 90" fill="none" xmlns="http://www.w3.org/2000/svg">
<path fill-rule="evenodd" clip-rule="evenodd" d="M45 90C69.8528 90 90 69.8528 90 45C90 20.1472 69.8528 0 45 0C20.1472 0 0 20.1472 0 45C0 69.8528 20.1472 90 45 90ZM45 88C68.7482 88 88 68.7482 88 45C88 21.2518 68.7482 2 45 2C21.2518 2 2 21.2518 2 45C2 68.7482 21.2518 88 45 88Z" fill="#A4B4CF"/>
<path fill-rule="evenodd" clip-rule="evenodd" d="M45 87C68.196 87 87 68.196 87 45C87 21.804 68.196 3 45 3C21.804 3 3 21.804 3 45C3 68.196 21.804 87 45 87ZM40.0299 16.2498C40.0299 15.0238 40.7369 13.3148 41.6009 12.4498C44.7719 9.27979 50.0299 11.6508 50.0299 16.2498C50.0299 17.8838 50.9539 18.8108 53.4969 19.7308C58.0799 21.3878 63.5519 27.9228 64.9259 33.3798C65.5329 35.7918 66.0299 42.3838 66.0299 48.0298V58.2948L69.6639 62.0158C76.2409 68.7518 75.7849 68.8788 45.0299 68.8788C14.2749 68.8788 13.8189 68.7518 20.3959 62.0158L24.0299 58.2948V48.0298C24.0299 42.3838 24.5269 35.7918 25.1339 33.3798C26.5079 27.9228 31.9799 21.3878 36.5629 19.7308C39.1059 18.8108 40.0299 17.8838 40.0299 16.2498ZM45.0299 78.8788C42.3569 78.8788 38.0299 75.0868 38.0299 72.7438C38.0299 72.2678 41.1799 71.8788 45.0299 71.8788C48.8799 71.8788 52.0299 72.2678 52.0299 72.7438C52.0299 75.0868 47.7029 78.8788 45.0299 78.8788Z" fill="#A4B4CF"/>
</svg>
