<svg width="100%" height="100%" viewBox="0 0 90 90" fill="none" xmlns="http://www.w3.org/2000/svg">
<path fill-rule="evenodd" clip-rule="evenodd" d="M45 90C69.8528 90 90 69.8528 90 45C90 20.1472 69.8528 0 45 0C20.1472 0 0 20.1472 0 45C0 69.8528 20.1472 90 45 90ZM45 88C68.7482 88 88 68.7482 88 45C88 21.2518 68.7482 2 45 2C21.2518 2 2 21.2518 2 45C2 68.7482 21.2518 88 45 88Z" fill="#A4B4CF"/>
<path fill-rule="evenodd" clip-rule="evenodd" d="M45 87C68.196 87 87 68.196 87 45C87 21.804 68.196 3 45 3C21.804 3 3 21.804 3 45C3 68.196 21.804 87 45 87ZM54.7182 11.3669C57.3348 12.1217 59.8255 13.1735 62.1514 14.4835C59.779 18.3106 60.2275 23.3999 63.5235 26.7549C66.8242 30.1145 71.9146 30.6499 75.7851 28.3344C76.905 30.3989 77.8234 32.5886 78.5137 34.8772C74.1499 35.9922 70.9458 39.9736 70.9981 44.6775C71.0505 49.3877 74.3512 53.3011 78.7476 54.3122C77.9481 57.216 76.7839 59.9687 75.3073 62.5178C71.5061 60.0975 66.4074 60.4878 63.0137 63.7485C59.6197 67.0095 59.0263 72.0891 61.2936 75.9842C59.2164 77.0787 57.0159 77.9705 54.7182 78.6333C53.6551 74.2528 49.7074 71.0001 45 71.0001C40.2925 71.0001 36.3448 74.2528 35.2817 78.6333C32.6651 77.8786 30.1744 76.8268 27.8486 75.5167C30.221 71.6897 29.7724 66.6003 26.4764 63.2454C23.1757 59.8857 18.0854 59.3503 14.2149 61.6659C13.0949 59.6014 12.1765 57.4116 11.4862 55.123C15.8499 54.008 19.0541 50.0266 19.0018 45.3227C18.9494 40.6125 15.6487 36.6992 11.2523 35.688C12.0518 32.7842 13.216 30.0315 14.6926 27.4824C18.4939 29.9026 23.5925 29.5123 26.9861 26.2516C30.3801 22.9906 30.9735 17.9111 28.7064 14.016C30.7835 12.9215 32.984 12.0297 35.2817 11.3669C36.3448 15.7474 40.2925 19.0001 45 19.0001C49.7074 19.0001 53.6551 15.7474 54.7182 11.3669Z" fill="#A4B4CF"/>
<path d="M60 45C60 53.2843 53.2843 60 45 60C36.7157 60 30 53.2843 30 45C30 36.7157 36.7157 30 45 30C53.2843 30 60 36.7157 60 45Z" fill="#A4B4CF"/>
</svg>
