<svg width="100%" height="100%" viewBox="0 0 90 90" fill="none" xmlns="http://www.w3.org/2000/svg">
<path fill-rule="evenodd" clip-rule="evenodd" d="M45 90C69.8528 90 90 69.8528 90 45C90 20.1472 69.8528 0 45 0C20.1472 0 0 20.1472 0 45C0 69.8528 20.1472 90 45 90ZM45 88C68.7482 88 88 68.7482 88 45C88 21.2518 68.7482 2 45 2C21.2518 2 2 21.2518 2 45C2 68.7482 21.2518 88 45 88Z"/>
<path fill-rule="evenodd" clip-rule="evenodd" d="M45 87C68.196 87 87 68.196 87 45C87 21.804 68.196 3 45 3C21.804 3 3 21.804 3 45C3 68.196 21.804 87 45 87ZM24 18C20.6863 18 18 20.6863 18 24V67C18 70.3137 20.6863 73 24 73H67C70.3137 73 73 70.3137 73 67V24C73 20.6863 70.3137 18 67 18H24Z"/>
<path d="M46 52C46 48.6863 48.6863 46 52 46H63C66.3137 46 69 48.6863 69 52V63C69 66.3137 66.3137 69 63 69H52C48.6863 69 46 66.3137 46 63V52Z"/>
<path d="M41.5345 40.5345C40.1677 41.9013 37.9516 41.9013 36.5848 40.5345L22.475 26.4247C21.1081 25.0578 21.1081 22.8418 22.475 21.4749C23.8418 20.1081 26.0579 20.1081 27.4247 21.4749L41.5345 35.5847C42.9013 36.9515 42.9013 39.1676 41.5345 40.5345Z"/>
<path d="M44 58C44 64.0751 39.0751 69 33 69C26.9249 69 22 64.0751 22 58C22 51.9249 26.9249 47 33 47C39.0751 47 44 51.9249 44 58Z"/>
<path d="M55.7679 23C56.5378 21.6667 58.4622 21.6667 59.2321 23L67.4593 37.25C68.2291 38.5833 67.2668 40.25 65.7272 40.25H49.2728C47.7332 40.25 46.7709 38.5833 47.5407 37.25L55.7679 23Z"/>
</svg>
