          <svg
            class="tile-icon"
            width="100%"
            height="100%"
            viewBox="0 0 90 90"
            fill="none"
            xmlns="http://www.w3.org/2000/svg"
          >
            <g class="tile-icon-fill">
              <path
                fill-rule="evenodd"
                clip-rule="evenodd"
                d="M45 90C69.8528 90 90 69.8528 90 45C90 20.1472 69.8528 0 45 0C20.1472 0 0 20.1472 0 45C0 69.8528 20.1472 90 45 90ZM45 88C68.7482 88 88 68.7482 88 45C88 21.2518 68.7482 2 45 2C21.2518 2 2 21.2518 2 45C2 68.7482 21.2518 88 45 88Z"
              />
              <path
                fill-rule="evenodd"
                clip-rule="evenodd"
                d="M45 87C68.196 87 87 68.196 87 45C87 21.804 68.196 3 45 3C21.804 3 3 21.804 3 45C3 68.196 21.804 87 45 87ZM45 80C64.33 80 80 64.33 80 45C80 25.67 64.33 10 45 10C25.67 10 10 25.67 10 45C10 64.33 25.67 80 45 80Z"
              />
              <path
                fill-rule="evenodd"
                clip-rule="evenodd"
                d="M77 45C77 62.6731 62.6731 77 45 77C27.3269 77 13 62.6731 13 45C13 27.3269 27.3269 13 45 13C62.6731 13 77 27.3269 77 45ZM41 19.5C41 17.567 42.567 16 44.5 16C46.433 16 48 17.567 48 19.5V44.0773L57.038 53.5627C58.3715 54.9621 58.318 57.1776 56.9185 58.511C55.5191 59.8444 53.3037 59.7909 51.9702 58.3915L42.4144 48.3626C42.3605 48.306 42.3088 48.2481 42.2594 48.1889C41.4897 47.5469 41 46.5806 41 45.5V19.5Z"
              />
            </g>
          </svg>