<svg width="100%" height="100%" viewBox="0 0 90 90" fill="none" xmlns="http://www.w3.org/2000/svg">
<path fill-rule="evenodd" clip-rule="evenodd" d="M45 90C69.8528 90 90 69.8528 90 45C90 20.1472 69.8528 0 45 0C20.1472 0 0 20.1472 0 45C0 69.8528 20.1472 90 45 90ZM45 88C68.7482 88 88 68.7482 88 45C88 21.2518 68.7482 2 45 2C21.2518 2 2 21.2518 2 45C2 68.7482 21.2518 88 45 88Z" fill="#A4B4CF"/>
<path fill-rule="evenodd" clip-rule="evenodd" d="M45 87C68.196 87 87 68.196 87 45C87 21.804 68.196 3 45 3C21.804 3 3 21.804 3 45C3 68.196 21.804 87 45 87ZM45 85.1333C67.165 85.1333 85.1333 67.165 85.1333 45C85.1333 22.835 67.165 4.86667 45 4.86667C22.835 4.86667 4.86667 22.835 4.86667 45C4.86667 67.165 22.835 85.1333 45 85.1333Z" fill="#A4B4CF"/>
<path fill-rule="evenodd" clip-rule="evenodd" d="M87 45C87 53.5791 84.4278 61.5574 80.0125 68.2057C74.2431 54.5685 60.739 45 45 45C29.261 45 15.7569 54.5685 9.98748 68.2057C5.57221 61.5574 3 53.5791 3 45C3 21.804 21.804 3 45 3C68.196 3 87 21.804 87 45ZM45.5 45C54.6127 45 62 37.6127 62 28.5C62 19.3873 54.6127 12 45.5 12C36.3873 12 29 19.3873 29 28.5C29 37.6127 36.3873 45 45.5 45Z" fill="#A4B4CF"/>
</svg>
