          <svg
            class="tile-icon"
            width="100%"
            height="100%"
            viewBox="0 0 90 90"
            fill="none"
            xmlns="http://www.w3.org/2000/svg"
          >
            <g class="tile-icon-fill">
              <path
                fill-rule="evenodd"
                clip-rule="evenodd"
                d="M45 90C69.8528 90 90 69.8528 90 45C90 20.1472 69.8528 0 45 0C20.1472 0 0 20.1472 0 45C0 69.8528 20.1472 90 45 90ZM45 88C68.7482 88 88 68.7482 88 45C88 21.2518 68.7482 2 45 2C21.2518 2 2 21.2518 2 45C2 68.7482 21.2518 88 45 88Z"
              />
              <path
                fill-rule="evenodd"
                clip-rule="evenodd"
                d="M45 87C68.196 87 87 68.196 87 45C87 21.804 68.196 3 45 3C21.804 3 3 21.804 3 45C3 68.196 21.804 87 45 87ZM24 17C22.8954 17 22 17.8954 22 19V71C22 72.1046 22.8954 73 24 73H66C67.1046 73 68 72.1046 68 71V19C68 17.8954 67.1046 17 66 17H24Z"
              />
              <path
                d="M35 25.5C35 24.1193 36.1193 23 37.5 23H62.5C63.8807 23 65 24.1193 65 25.5C65 26.8807 63.8807 28 62.5 28H37.5C36.1193 28 35 26.8807 35 25.5Z"
              />
              <path
                d="M31 25.5C31 26.8807 29.8807 28 28.5 28C27.1193 28 26 26.8807 26 25.5C26 24.1193 27.1193 23 28.5 23C29.8807 23 31 24.1193 31 25.5Z"
              />
              <path
                d="M35 38.5C35 37.1193 36.1193 36 37.5 36H62.5C63.8807 36 65 37.1193 65 38.5C65 39.8807 63.8807 41 62.5 41H37.5C36.1193 41 35 39.8807 35 38.5Z"
              />
              <path
                d="M31 38.5C31 39.8807 29.8807 41 28.5 41C27.1193 41 26 39.8807 26 38.5C26 37.1193 27.1193 36 28.5 36C29.8807 36 31 37.1193 31 38.5Z"
              />
              <path
                d="M35 51.5C35 50.1193 36.1193 49 37.5 49H62.5C63.8807 49 65 50.1193 65 51.5C65 52.8807 63.8807 54 62.5 54H37.5C36.1193 54 35 52.8807 35 51.5Z"
              />
              <path
                d="M31 51.5C31 52.8807 29.8807 54 28.5 54C27.1193 54 26 52.8807 26 51.5C26 50.1193 27.1193 49 28.5 49C29.8807 49 31 50.1193 31 51.5Z"
              />
              <path
                d="M35 64.5C35 63.1193 36.1193 62 37.5 62H62.5C63.8807 62 65 63.1193 65 64.5C65 65.8807 63.8807 67 62.5 67H37.5C36.1193 67 35 65.8807 35 64.5Z"
              />
              <path
                d="M31 64.5C31 65.8807 29.8807 67 28.5 67C27.1193 67 26 65.8807 26 64.5C26 63.1193 27.1193 62 28.5 62C29.8807 62 31 63.1193 31 64.5Z"
              />
            </g>
          </svg>