<svg width="90" height="90" viewBox="0 0 90 90" fill="none" xmlns="http://www.w3.org/2000/svg">
<path fill-rule="evenodd" clip-rule="evenodd" d="M45 90C69.8528 90 90 69.8528 90 45C90 20.1472 69.8528 0 45 0C20.1472 0 0 20.1472 0 45C0 69.8528 20.1472 90 45 90ZM45 88C68.7482 88 88 68.7482 88 45C88 21.2518 68.7482 2 45 2C21.2518 2 2 21.2518 2 45C2 68.7482 21.2518 88 45 88Z"/>
<path fill-rule="evenodd" clip-rule="evenodd" d="M45 87C68.196 87 87 68.196 87 45C87 21.804 68.196 3 45 3C21.804 3 3 21.804 3 45C3 68.196 21.804 87 45 87ZM10.8284 41.9411C9.26633 43.5032 9.26633 46.0359 10.8284 47.598L41.9411 78.7107C43.5032 80.2728 46.0359 80.2728 47.598 78.7107L78.7107 47.598C80.2728 46.0359 80.2728 43.5032 78.7107 41.9411L47.598 10.8284C46.0359 9.26631 43.5032 9.26631 41.9411 10.8284L10.8284 41.9411Z"/>
<path fill-rule="evenodd" clip-rule="evenodd" d="M15.1213 42.6985C13.9497 43.8701 13.9497 45.7696 15.1213 46.9411L42.6985 74.5183C43.8701 75.6899 45.7696 75.6899 46.9411 74.5183L74.5183 46.9411C75.6899 45.7696 75.6899 43.8701 74.5183 42.6985L46.9411 15.1213C45.7696 13.9498 43.8701 13.9498 42.6985 15.1213L15.1213 42.6985ZM40.7071 22.2426C40.3166 22.6331 40.3166 23.2663 40.7071 23.6568L44.2426 27.1923C44.6332 27.5829 45.2663 27.5829 45.6569 27.1923L49.1924 23.6568C49.5829 23.2663 49.5829 22.6331 49.1924 22.2426L45.6569 18.7071C45.2663 18.3165 44.6332 18.3165 44.2426 18.7071L40.7071 22.2426ZM40.7071 67.6568C40.3166 67.2663 40.3166 66.6331 40.7071 66.2426L44.2426 62.7071C44.6332 62.3165 45.2663 62.3165 45.6569 62.7071L49.1924 66.2426C49.5829 66.6331 49.5829 67.2663 49.1924 67.6568L45.6569 71.1923C45.2663 71.5829 44.6332 71.5829 44.2426 71.1923L40.7071 67.6568ZM18.7071 44.2426C18.3166 44.6331 18.3166 45.2663 18.7071 45.6568L22.2426 49.1923C22.6332 49.5829 23.2663 49.5829 23.6569 49.1923L27.1924 45.6568C27.5829 45.2663 27.5829 44.6331 27.1924 44.2426L23.6569 40.7071C23.2663 40.3165 22.6332 40.3165 22.2426 40.7071L18.7071 44.2426ZM62.7071 45.6568C62.3166 45.2663 62.3166 44.6331 62.7071 44.2426L66.2426 40.7071C66.6332 40.3165 67.2663 40.3165 67.6569 40.7071L71.1924 44.2426C71.5829 44.6331 71.5829 45.2663 71.1924 45.6568L67.6569 49.1923C67.2663 49.5829 66.6332 49.5829 66.2426 49.1923L62.7071 45.6568ZM31.4142 43.4349C30.6332 44.216 30.6332 45.4823 31.4142 46.2633L43.435 58.2841C44.2161 59.0652 45.4824 59.0652 46.2635 58.2841L58.2843 46.2633C59.0653 45.4823 59.0653 44.216 58.2843 43.4349L46.2635 31.4141C45.4824 30.633 44.2161 30.633 43.435 31.4141L31.4142 43.4349Z"/>
</svg>
